<?xml version="1.0" encoding="UTF-8" standalone="no"?>
<!DOCTYPE svg PUBLIC "-//W3C//DTD SVG 1.1//EN" "http://www.w3.org/Graphics/SVG/1.1/DTD/svg11.dtd">
<svg width="100%" height="100%" viewBox="0 0 3508 1180" version="1.1" xmlns="http://www.w3.org/2000/svg" xmlns:xlink="http://www.w3.org/1999/xlink" xml:space="preserve" xmlns:serif="http://www.serif.com/" style="fill-rule:evenodd;clip-rule:evenodd;">
    <g id="bg" transform="matrix(2.48272,0,0,2.41658,1724.78,506.456)">
        <g opacity="0.07">
            <g transform="matrix(1,0,0,1,-720,-280)">
                <clipPath id="_clip1">
                    <rect x="0" y="0" width="1440" height="560"/>
                </clipPath>
                <g clip-path="url(#_clip1)">
                    <g transform="matrix(1,0,0,1,12.7025,3.46431)">
                        <path d="M-69.13,394.12L85.05,345.34" style="fill:none;fill-rule:nonzero;stroke:rgb(19,46,101);stroke-width:1.5px;"/>
                        <path d="M-69.13,394.12L51.6,537.55" style="fill:none;fill-rule:nonzero;stroke:rgb(19,46,101);stroke-width:1.5px;"/>
                        <path d="M-86.45,505.86L51.6,537.55" style="fill:none;fill-rule:nonzero;stroke:rgb(19,46,101);stroke-width:1.5px;"/>
                        <path d="M-72.4,663.34L51.6,537.55" style="fill:none;fill-rule:nonzero;stroke:rgb(19,46,101);stroke-width:1.5px;"/>
                        <path d="M85.05,345.34L51.6,537.55" style="fill:none;fill-rule:nonzero;stroke:rgb(19,46,101);stroke-width:1.5px;"/>
                        <path d="M85.05,345.34L-86.45,505.86" style="fill:none;fill-rule:nonzero;stroke:rgb(19,46,101);stroke-width:1.5px;"/>
                        <path d="M85.05,345.34L257.3,524.58" style="fill:none;fill-rule:nonzero;stroke:rgb(19,46,101);stroke-width:1.5px;"/>
                        <path d="M85.05,345.34L354.9,548.27" style="fill:none;fill-rule:nonzero;stroke:rgb(19,46,101);stroke-width:1.5px;"/>
                        <path d="M51.6,537.55L77.04,706.01" style="fill:none;fill-rule:nonzero;stroke:rgb(19,46,101);stroke-width:1.5px;"/>
                        <path d="M77.04,706.01L257.3,524.58" style="fill:none;fill-rule:nonzero;stroke:rgb(19,46,101);stroke-width:1.5px;"/>
                        <path d="M77.04,706.01L-86.45,505.86" style="fill:none;fill-rule:nonzero;stroke:rgb(19,46,101);stroke-width:1.5px;"/>
                        <path d="M257.3,524.58L354.9,548.27" style="fill:none;fill-rule:nonzero;stroke:rgb(19,46,101);stroke-width:1.5px;"/>
                        <path d="M257.3,524.58L226.55,706.58" style="fill:none;fill-rule:nonzero;stroke:rgb(19,46,101);stroke-width:1.5px;"/>
                        <path d="M257.3,524.58L51.6,537.55" style="fill:none;fill-rule:nonzero;stroke:rgb(19,46,101);stroke-width:1.5px;"/>
                        <path d="M257.3,524.58L407.04,681.56" style="fill:none;fill-rule:nonzero;stroke:rgb(19,46,101);stroke-width:1.5px;"/>
                        <path d="M226.55,706.58L354.9,548.27" style="fill:none;fill-rule:nonzero;stroke:rgb(19,46,101);stroke-width:1.5px;"/>
                        <path d="M226.55,706.58L51.6,537.55" style="fill:none;fill-rule:nonzero;stroke:rgb(19,46,101);stroke-width:1.5px;"/>
                        <path d="M354.9,548.27L407.04,681.56" style="fill:none;fill-rule:nonzero;stroke:rgb(19,46,101);stroke-width:1.5px;"/>
                        <path d="M354.9,548.27L542.1,506.34" style="fill:none;fill-rule:nonzero;stroke:rgb(19,46,101);stroke-width:1.5px;"/>
                        <path d="M354.9,548.27L542.93,651.98" style="fill:none;fill-rule:nonzero;stroke:rgb(19,46,101);stroke-width:1.5px;"/>
                        <path d="M354.9,548.27L491.97,379.84" style="fill:none;fill-rule:nonzero;stroke:rgb(19,46,101);stroke-width:1.5px;"/>
                        <path d="M491.97,379.84L542.1,506.34" style="fill:none;fill-rule:nonzero;stroke:rgb(19,46,101);stroke-width:1.5px;"/>
                        <path d="M491.97,379.84L683.12,381.13" style="fill:none;fill-rule:nonzero;stroke:rgb(19,46,101);stroke-width:1.5px;"/>
                        <path d="M542.1,506.34L542.93,651.98" style="fill:none;fill-rule:nonzero;stroke:rgb(19,46,101);stroke-width:1.5px;"/>
                        <path d="M542.1,506.34L701.74,545" style="fill:none;fill-rule:nonzero;stroke:rgb(19,46,101);stroke-width:1.5px;"/>
                        <path d="M542.1,506.34L683.12,381.13" style="fill:none;fill-rule:nonzero;stroke:rgb(19,46,101);stroke-width:1.5px;"/>
                        <path d="M542.93,651.98L701.74,545" style="fill:none;fill-rule:nonzero;stroke:rgb(19,46,101);stroke-width:1.5px;"/>
                        <path d="M542.93,651.98L491.97,379.84" style="fill:none;fill-rule:nonzero;stroke:rgb(19,46,101);stroke-width:1.5px;"/>
                        <path d="M668.66,243.02L683.12,381.13" style="fill:none;fill-rule:nonzero;stroke:rgb(19,46,101);stroke-width:1.5px;"/>
                        <path d="M668.66,243.02L854.62,248.9" style="fill:none;fill-rule:nonzero;stroke:rgb(19,46,101);stroke-width:1.5px;"/>
                        <path d="M668.66,243.02L491.97,379.84" style="fill:none;fill-rule:nonzero;stroke:rgb(19,46,101);stroke-width:1.5px;"/>
                        <path d="M668.66,243.02L842.32,400.17" style="fill:none;fill-rule:nonzero;stroke:rgb(19,46,101);stroke-width:1.5px;"/>
                        <path d="M683.12,381.13L842.32,400.17" style="fill:none;fill-rule:nonzero;stroke:rgb(19,46,101);stroke-width:1.5px;"/>
                        <path d="M683.12,381.13L701.74,545" style="fill:none;fill-rule:nonzero;stroke:rgb(19,46,101);stroke-width:1.5px;"/>
                        <path d="M701.74,545L801.54,537.84" style="fill:none;fill-rule:nonzero;stroke:rgb(19,46,101);stroke-width:1.5px;"/>
                        <path d="M701.74,545L668.4,657.08" style="fill:none;fill-rule:nonzero;stroke:rgb(19,46,101);stroke-width:1.5px;"/>
                        <path d="M668.4,657.08L801.54,537.84" style="fill:none;fill-rule:nonzero;stroke:rgb(19,46,101);stroke-width:1.5px;"/>
                        <path d="M668.4,657.08L542.1,506.34" style="fill:none;fill-rule:nonzero;stroke:rgb(19,46,101);stroke-width:1.5px;"/>
                        <path d="M854.62,248.9L974.85,227.62" style="fill:none;fill-rule:nonzero;stroke:rgb(19,46,101);stroke-width:1.5px;"/>
                        <path d="M854.62,248.9L946.14,343.9" style="fill:none;fill-rule:nonzero;stroke:rgb(19,46,101);stroke-width:1.5px;"/>
                        <path d="M842.32,400.17L946.14,343.9" style="fill:none;fill-rule:nonzero;stroke:rgb(19,46,101);stroke-width:1.5px;"/>
                        <path d="M842.32,400.17L801.54,537.84" style="fill:none;fill-rule:nonzero;stroke:rgb(19,46,101);stroke-width:1.5px;"/>
                        <path d="M842.32,400.17L854.62,248.9" style="fill:none;fill-rule:nonzero;stroke:rgb(19,46,101);stroke-width:1.5px;"/>
                        <path d="M842.32,400.17L701.74,545" style="fill:none;fill-rule:nonzero;stroke:rgb(19,46,101);stroke-width:1.5px;"/>
                        <path d="M842.32,400.17L974.85,227.62" style="fill:none;fill-rule:nonzero;stroke:rgb(19,46,101);stroke-width:1.5px;"/>
                        <path d="M801.54,537.84L841.06,681.54" style="fill:none;fill-rule:nonzero;stroke:rgb(19,46,101);stroke-width:1.5px;"/>
                        <path d="M974.85,227.62L946.14,343.9" style="fill:none;fill-rule:nonzero;stroke:rgb(19,46,101);stroke-width:1.5px;"/>
                        <path d="M974.85,227.62L1009.19,57.09" style="fill:none;fill-rule:nonzero;stroke:rgb(19,46,101);stroke-width:1.5px;"/>
                        <path d="M990.65,560.29L1110,492.58" style="fill:none;fill-rule:nonzero;stroke:rgb(19,46,101);stroke-width:1.5px;"/>
                        <path d="M990.65,560.29L801.54,537.84" style="fill:none;fill-rule:nonzero;stroke:rgb(19,46,101);stroke-width:1.5px;"/>
                        <path d="M945.24,695.86L801.54,537.84" style="fill:none;fill-rule:nonzero;stroke:rgb(19,46,101);stroke-width:1.5px;"/>
                        <path d="M945.24,695.86L1110,492.58" style="fill:none;fill-rule:nonzero;stroke:rgb(19,46,101);stroke-width:1.5px;"/>
                        <path d="M1151.67,-73.25L1237.97,86.88" style="fill:none;fill-rule:nonzero;stroke:rgb(19,46,101);stroke-width:1.5px;"/>
                        <path d="M1151.67,-73.25L1268.05,212.63" style="fill:none;fill-rule:nonzero;stroke:rgb(19,46,101);stroke-width:1.5px;"/>
                        <path d="M1158.82,59.56L1237.97,86.88" style="fill:none;fill-rule:nonzero;stroke:rgb(19,46,101);stroke-width:1.5px;"/>
                        <path d="M1116.61,400.54L1110,492.58" style="fill:none;fill-rule:nonzero;stroke:rgb(19,46,101);stroke-width:1.5px;"/>
                        <path d="M1116.61,400.54L946.14,343.9" style="fill:none;fill-rule:nonzero;stroke:rgb(19,46,101);stroke-width:1.5px;"/>
                        <path d="M1116.61,400.54L1308.91,379" style="fill:none;fill-rule:nonzero;stroke:rgb(19,46,101);stroke-width:1.5px;"/>
                        <path d="M1116.61,400.54L990.65,560.29" style="fill:none;fill-rule:nonzero;stroke:rgb(19,46,101);stroke-width:1.5px;"/>
                        <path d="M1110,492.58L1284.92,530.38" style="fill:none;fill-rule:nonzero;stroke:rgb(19,46,101);stroke-width:1.5px;"/>
                        <path d="M1237.97,86.88L1268.05,212.63" style="fill:none;fill-rule:nonzero;stroke:rgb(19,46,101);stroke-width:1.5px;"/>
                        <path d="M1268.05,212.63L1437.49,229.32" style="fill:none;fill-rule:nonzero;stroke:rgb(19,46,101);stroke-width:1.5px;"/>
                        <path d="M1268.05,212.63L1308.91,379" style="fill:none;fill-rule:nonzero;stroke:rgb(19,46,101);stroke-width:1.5px;"/>
                        <path d="M1268.05,212.63L1158.82,59.56" style="fill:none;fill-rule:nonzero;stroke:rgb(19,46,101);stroke-width:1.5px;"/>
                        <path d="M1268.05,212.63L1426.69,391.68" style="fill:none;fill-rule:nonzero;stroke:rgb(19,46,101);stroke-width:1.5px;"/>
                        <path d="M1268.05,212.63L1116.61,400.54" style="fill:none;fill-rule:nonzero;stroke:rgb(19,46,101);stroke-width:1.5px;"/>
                        <path d="M1308.91,379L1426.69,391.68" style="fill:none;fill-rule:nonzero;stroke:rgb(19,46,101);stroke-width:1.5px;"/>
                        <path d="M1308.91,379L1284.92,530.38" style="fill:none;fill-rule:nonzero;stroke:rgb(19,46,101);stroke-width:1.5px;"/>
                        <path d="M1308.91,379L1418.77,537.4" style="fill:none;fill-rule:nonzero;stroke:rgb(19,46,101);stroke-width:1.5px;"/>
                        <path d="M1284.92,530.38L1418.77,537.4" style="fill:none;fill-rule:nonzero;stroke:rgb(19,46,101);stroke-width:1.5px;"/>
                        <path d="M1292.55,686.54L1284.92,530.38" style="fill:none;fill-rule:nonzero;stroke:rgb(19,46,101);stroke-width:1.5px;"/>
                        <path d="M1292.55,686.54L1418.77,537.4" style="fill:none;fill-rule:nonzero;stroke:rgb(19,46,101);stroke-width:1.5px;"/>
                        <path d="M1292.55,686.54L1110,492.58" style="fill:none;fill-rule:nonzero;stroke:rgb(19,46,101);stroke-width:1.5px;"/>
                        <path d="M1424.09,-48.82L1237.97,86.88" style="fill:none;fill-rule:nonzero;stroke:rgb(19,46,101);stroke-width:1.5px;"/>
                        <path d="M1424.09,-48.82L1437.49,229.32" style="fill:none;fill-rule:nonzero;stroke:rgb(19,46,101);stroke-width:1.5px;"/>
                        <path d="M1437.49,229.32L1426.69,391.68" style="fill:none;fill-rule:nonzero;stroke:rgb(19,46,101);stroke-width:1.5px;"/>
                        <path d="M1426.69,391.68L1418.77,537.4" style="fill:none;fill-rule:nonzero;stroke:rgb(19,46,101);stroke-width:1.5px;"/>
                        <path d="M1418.77,537.4L1576.61,535.06" style="fill:none;fill-rule:nonzero;stroke:rgb(19,46,101);stroke-width:1.5px;"/>
                        <path d="M1418.77,537.4L1417.02,698.26" style="fill:none;fill-rule:nonzero;stroke:rgb(19,46,101);stroke-width:1.5px;"/>
                        <path d="M1417.02,698.26L1284.92,530.38" style="fill:none;fill-rule:nonzero;stroke:rgb(19,46,101);stroke-width:1.5px;"/>
                        <path d="M1557.35,58.85L1237.97,86.88" style="fill:none;fill-rule:nonzero;stroke:rgb(19,46,101);stroke-width:1.5px;"/>
                        <path d="M1595.63,216.78L1426.69,391.68" style="fill:none;fill-rule:nonzero;stroke:rgb(19,46,101);stroke-width:1.5px;"/>
                        <path d="M1595.63,216.78L1424.09,-48.82" style="fill:none;fill-rule:nonzero;stroke:rgb(19,46,101);stroke-width:1.5px;"/>
                        <path d="M1566.63,340.8L1426.69,391.68" style="fill:none;fill-rule:nonzero;stroke:rgb(19,46,101);stroke-width:1.5px;"/>
                        <path d="M1609.85,694.81L1418.77,537.4" style="fill:none;fill-rule:nonzero;stroke:rgb(19,46,101);stroke-width:1.5px;"/>
                        <circle cx="85.05" cy="345.34" r="5" style="fill:rgb(19,46,101);"/>
                        <circle cx="51.6" cy="537.55" r="5" style="fill:rgb(19,46,101);"/>
                        <circle cx="257.3" cy="524.58" r="5" style="fill:rgb(19,46,101);"/>
                        <circle cx="354.9" cy="548.27" r="5" style="fill:rgb(19,46,101);"/>
                        <circle cx="491.97" cy="379.84" r="5" style="fill:rgb(19,46,101);"/>
                        <circle cx="542.1" cy="506.34" r="5" style="fill:rgb(19,46,101);"/>
                        <circle cx="668.66" cy="243.02" r="5" style="fill:rgb(19,46,101);"/>
                        <circle cx="683.12" cy="381.13" r="5" style="fill:rgb(19,46,101);"/>
                        <circle cx="701.74" cy="545" r="5" style="fill:rgb(19,46,101);"/>
                        <circle cx="854.62" cy="248.9" r="5" style="fill:rgb(19,46,101);"/>
                        <circle cx="842.32" cy="400.17" r="5" style="fill:rgb(19,46,101);"/>
                        <circle cx="801.54" cy="537.84" r="5" style="fill:rgb(19,46,101);"/>
                        <circle cx="974.85" cy="227.62" r="5" style="fill:rgb(19,46,101);"/>
                        <circle cx="946.14" cy="343.9" r="5" style="fill:rgb(19,46,101);"/>
                        <circle cx="990.65" cy="560.29" r="5" style="fill:rgb(19,46,101);"/>
                        <circle cx="1116.61" cy="400.54" r="5" style="fill:rgb(19,46,101);"/>
                        <circle cx="1110" cy="492.58" r="5" style="fill:rgb(19,46,101);"/>
                        <circle cx="1237.97" cy="86.88" r="5" style="fill:rgb(19,46,101);"/>
                        <circle cx="1268.05" cy="212.63" r="5" style="fill:rgb(19,46,101);"/>
                        <circle cx="1308.91" cy="379" r="5" style="fill:rgb(19,46,101);"/>
                        <circle cx="1284.92" cy="530.38" r="5" style="fill:rgb(19,46,101);"/>
                        <circle cx="1426.69" cy="391.68" r="5" style="fill:rgb(19,46,101);"/>
                        <circle cx="1418.77" cy="537.4" r="5" style="fill:rgb(19,46,101);"/>
                        <path d="M-95.86,642.7L78.59,494.91" style="fill:none;fill-rule:nonzero;"/>
                        <path d="M-95.86,642.7L208.31,535.08" style="fill:none;fill-rule:nonzero;"/>
                        <path d="M854.33,664.67L806.66,541.17" style="fill:none;fill-rule:nonzero;"/>
                        <path d="M1143.66,373.4L1291.73,385.42" style="fill:none;fill-rule:nonzero;"/>
                        <path d="M1143.66,373.4L1115.08,546.3" style="fill:none;fill-rule:nonzero;"/>
                        <path d="M1143.66,373.4L1281.18,261.86" style="fill:none;fill-rule:nonzero;"/>
                        <path d="M1143.66,373.4L968.31,412.3" style="fill:none;fill-rule:nonzero;"/>
                        <path d="M1143.66,373.4L1007.54,506.33" style="fill:none;fill-rule:nonzero;"/>
                        <path d="M1295.88,95.94L1138.45,70.87" style="fill:none;fill-rule:nonzero;"/>
                        <path d="M1295.88,95.94L1281.18,261.86" style="fill:none;fill-rule:nonzero;"/>
                        <path d="M1295.88,95.94L1296.27,-101.72" style="fill:none;fill-rule:nonzero;"/>
                        <path d="M1295.88,95.94L1405.66,-104.96" style="fill:none;fill-rule:nonzero;"/>
                        <path d="M1295.88,95.94L1552.54,57.64" style="fill:none;fill-rule:nonzero;"/>
                        <path d="M1291.73,385.42L1310.27,494.74" style="fill:none;fill-rule:nonzero;"/>
                        <path d="M1291.73,385.42L1281.18,261.86" style="fill:none;fill-rule:nonzero;"/>
                        <path d="M1291.73,385.42L1455.59,378.15" style="fill:none;fill-rule:nonzero;"/>
                        <path d="M1272.32,641.13L1310.27,494.74" style="fill:none;fill-rule:nonzero;"/>
                        <path d="M-82.53,561.02L78.59,494.91" style="fill:none;fill-rule:nonzero;"/>
                        <path d="M-82.53,561.02L208.31,535.08" style="fill:none;fill-rule:nonzero;"/>
                        <path d="M78.59,494.91L208.31,535.08" style="fill:none;fill-rule:nonzero;"/>
                        <path d="M78.59,494.91L64.34,637.85" style="fill:none;fill-rule:nonzero;"/>
                        <path d="M78.59,494.91L233.47,708.19" style="fill:none;fill-rule:nonzero;"/>
                        <path d="M78.59,494.91L402.66,552.54" style="fill:none;fill-rule:nonzero;"/>
                        <path d="M64.34,637.85L208.31,535.08" style="fill:none;fill-rule:nonzero;"/>
                        <path d="M208.31,535.08L233.47,708.19" style="fill:none;fill-rule:nonzero;"/>
                        <path d="M208.31,535.08L402.66,552.54" style="fill:none;fill-rule:nonzero;"/>
                        <path d="M233.47,708.19L402.66,552.54" style="fill:none;fill-rule:nonzero;"/>
                        <path d="M233.47,708.19L519.35,518.63" style="fill:none;fill-rule:nonzero;"/>
                        <path d="M402.66,552.54L519.35,518.63" style="fill:none;fill-rule:nonzero;"/>
                        <path d="M710.26,397.86L859.64,352.89" style="fill:none;fill-rule:nonzero;"/>
                        <path d="M710.26,397.86L663.03,556.2" style="fill:none;fill-rule:nonzero;"/>
                        <path d="M663.03,556.2L806.66,541.17" style="fill:none;fill-rule:nonzero;"/>
                        <path d="M663.03,556.2L519.35,518.63" style="fill:none;fill-rule:nonzero;"/>
                        <path d="M859.64,352.89L968.31,412.3" style="fill:none;fill-rule:nonzero;"/>
                        <path d="M859.64,352.89L806.66,541.17" style="fill:none;fill-rule:nonzero;"/>
                        <path d="M859.64,352.89L1007.54,506.33" style="fill:none;fill-rule:nonzero;"/>
                        <path d="M859.64,352.89L663.03,556.2" style="fill:none;fill-rule:nonzero;"/>
                        <path d="M859.64,352.89L1143.66,373.4" style="fill:none;fill-rule:nonzero;"/>
                        <path d="M806.66,541.17L710.78,653.81" style="fill:none;fill-rule:nonzero;"/>
                        <path d="M806.66,541.17L710.26,397.86" style="fill:none;fill-rule:nonzero;"/>
                        <path d="M968.31,412.3L1007.54,506.33" style="fill:none;fill-rule:nonzero;"/>
                        <path d="M968.31,412.3L1115.08,546.3" style="fill:none;fill-rule:nonzero;"/>
                        <path d="M968.31,412.3L806.66,541.17" style="fill:none;fill-rule:nonzero;"/>
                        <path d="M968.31,412.3L710.26,397.86" style="fill:none;fill-rule:nonzero;"/>
                        <path d="M1007.54,506.33L1115.08,546.3" style="fill:none;fill-rule:nonzero;"/>
                        <path d="M1007.54,506.33L1001.91,701.98" style="fill:none;fill-rule:nonzero;"/>
                        <path d="M1007.54,506.33L806.66,541.17" style="fill:none;fill-rule:nonzero;"/>
                        <path d="M1001.91,701.98L1115.08,546.3" style="fill:none;fill-rule:nonzero;"/>
                        <path d="M1001.91,701.98L806.66,541.17" style="fill:none;fill-rule:nonzero;"/>
                        <path d="M1138.45,70.87L1296.27,-101.72" style="fill:none;fill-rule:nonzero;"/>
                        <path d="M1138.45,70.87L1281.18,261.86" style="fill:none;fill-rule:nonzero;"/>
                        <path d="M1138.45,70.87L1143.66,373.4" style="fill:none;fill-rule:nonzero;"/>
                        <path d="M1138.45,70.87L1405.66,-104.96" style="fill:none;fill-rule:nonzero;"/>
                        <path d="M1115.08,546.3L1110.89,689.35" style="fill:none;fill-rule:nonzero;"/>
                        <path d="M1115.08,546.3L1272.32,641.13" style="fill:none;fill-rule:nonzero;"/>
                        <path d="M1281.18,261.86L1455.59,378.15" style="fill:none;fill-rule:nonzero;"/>
                        <path d="M1281.18,261.86L1310.27,494.74" style="fill:none;fill-rule:nonzero;"/>
                        <path d="M1310.27,494.74L1414,556.91" style="fill:none;fill-rule:nonzero;"/>
                        <path d="M1310.27,494.74L1455.59,378.15" style="fill:none;fill-rule:nonzero;"/>
                        <path d="M1414,556.91L1577.23,509.32" style="fill:none;fill-rule:nonzero;"/>
                        <path d="M1414,556.91L1455.59,378.15" style="fill:none;fill-rule:nonzero;"/>
                        <path d="M1388.03,667.84L1310.27,494.74" style="fill:none;fill-rule:nonzero;"/>
                        <path d="M1558.79,-109.88L1295.88,95.94" style="fill:none;fill-rule:nonzero;"/>
                        <path d="M1542.97,393.85L1414,556.91" style="fill:none;fill-rule:nonzero;"/>
                        <path d="M1542.97,393.85L1291.73,385.42" style="fill:none;fill-rule:nonzero;"/>
                        <path d="M1542.97,393.85L1310.27,494.74" style="fill:none;fill-rule:nonzero;"/>
                        <circle cx="1143.66" cy="373.4" r="25" style="fill:url(#_Radial2);"/>
                        <circle cx="1295.88" cy="95.94" r="25" style="fill:url(#_Radial3);"/>
                        <circle cx="1291.73" cy="385.42" r="25" style="fill:url(#_Radial4);"/>
                        <circle cx="78.59" cy="494.91" r="5" style="fill:rgb(139,154,217);"/>
                        <circle cx="208.31" cy="535.08" r="5" style="fill:rgb(139,154,217);"/>
                        <circle cx="402.66" cy="552.54" r="5" style="fill:rgb(139,154,217);"/>
                        <circle cx="519.35" cy="518.63" r="5" style="fill:rgb(139,154,217);"/>
                        <circle cx="710.26" cy="397.86" r="5" style="fill:rgb(139,154,217);"/>
                        <circle cx="663.03" cy="556.2" r="5" style="fill:rgb(139,154,217);"/>
                        <circle cx="859.64" cy="352.89" r="5" style="fill:rgb(139,154,217);"/>
                        <circle cx="806.66" cy="541.17" r="5" style="fill:rgb(139,154,217);"/>
                        <circle cx="968.31" cy="412.3" r="5" style="fill:rgb(139,154,217);"/>
                        <circle cx="1007.54" cy="506.33" r="5" style="fill:rgb(139,154,217);"/>
                        <circle cx="1138.45" cy="70.87" r="5" style="fill:rgb(139,154,217);"/>
                        <circle cx="1115.08" cy="546.3" r="5" style="fill:rgb(139,154,217);"/>
                        <circle cx="1281.18" cy="261.86" r="5" style="fill:rgb(139,154,217);"/>
                        <circle cx="1310.27" cy="494.74" r="5" style="fill:rgb(139,154,217);"/>
                        <circle cx="1414" cy="556.91" r="5" style="fill:rgb(139,154,217);"/>
                    </g>
                </g>
            </g>
        </g>
    </g>
    <g id="Header" transform="matrix(5.8958,0,0,5.8958,0,0)">
        <g transform="matrix(1,0,0,0.790476,-60,-3.00772)">
            <rect x="0.477" y="-14.355" width="728.863" height="50.1" style="fill:rgb(37,99,235);"/>
        </g>
        <g id="header.svg" transform="matrix(0.022537,0,0,0.022537,32.179,11.4544)">
            <g transform="matrix(1,0,0,1,-1417.5,-347.5)">
                <path id="labellio" d="M306.19,626.94C300.303,585.173 296.48,543.7 294.72,502.52C293.54,460.753 292.95,418.987 292.95,377.22C292.95,335.453 293.54,293.98 294.72,252.8C295.893,211.627 296.187,170.45 295.6,129.27C295.6,124.563 297.363,121.327 300.89,119.56C304.423,117.793 308.543,116.91 313.25,116.91C318.543,116.91 323.25,118.97 327.37,123.09C331.483,126.623 335.013,131.33 337.96,137.21C340.9,142.503 342.957,148.09 344.13,153.97C345.897,159.27 346.78,163.683 346.78,167.21C350.307,251.33 352.66,321.627 353.84,378.1C355.013,433.987 355.013,479.283 353.84,513.99C352.66,548.11 350.6,573.407 347.66,589.88C345.307,606.353 342.073,617.53 337.96,623.41C333.84,629.297 328.837,631.65 322.95,630.47C317.657,629.297 312.07,628.12 306.19,626.94ZM395.31,484.87C395.897,474.87 398.84,463.4 404.14,450.46C409.433,437.52 417.667,424.873 428.84,412.52C440.02,400.167 454.14,389.283 471.2,379.87C488.26,369.87 508.26,362.81 531.2,358.69C554.733,354.57 581.207,354.277 610.62,357.81C640.62,361.337 673.857,370.16 710.33,384.28L710.33,375.46L709.45,367.52C709.45,352.22 705.037,336.63 696.21,320.75C687.383,304.863 675.913,290.743 661.8,278.39C648.267,265.45 633.56,255.157 617.68,247.51C601.793,239.277 586.497,235.16 571.79,235.16C565.91,235.16 560.617,236.04 555.91,237.8C551.79,239.567 547.67,241.92 543.55,244.86C539.437,247.213 535.32,249.567 531.2,251.92C527.673,253.687 523.26,254.57 517.96,254.57C516.787,254.57 516.2,254.277 516.2,253.69C515.613,253.097 515.023,252.507 514.43,251.92C513.257,250.747 511.493,249.277 509.14,247.51C507.373,245.743 506.49,244.567 506.49,243.98C506.49,233.393 508.257,224.277 511.79,216.63C515.903,208.977 521.197,202.797 527.67,198.09C534.73,193.39 542.377,189.863 550.61,187.51C559.437,184.563 568.557,183.09 577.97,183.09C601.497,185.443 623.85,192.797 645.03,205.15C666.797,216.917 686.503,231.92 704.15,250.16C722.39,268.393 738.273,289.57 751.8,313.69C765.333,337.223 776.51,361.93 785.33,387.81C794.743,413.103 800.92,438.693 803.86,464.58C807.393,491.64 807.687,516.937 804.74,540.47L799.45,540.47C796.51,539.877 793.273,539.58 789.74,539.58C786.213,538.993 783.273,538.407 780.92,537.82L776.51,536.94C764.157,509.287 750.33,486.93 735.03,469.87C719.737,452.81 704.443,439.577 689.15,430.17C674.443,420.163 660.62,413.397 647.68,409.87C634.733,405.75 624.143,402.81 615.91,401.05C607.083,401.05 596.493,401.637 584.14,402.81C572.38,403.99 560.027,406.05 547.08,408.99C534.14,411.93 520.907,416.047 507.38,421.34C494.433,426.047 482.667,431.93 472.08,438.99C462.08,446.05 453.843,454.58 447.37,464.58C441.49,473.993 438.55,485.17 438.55,498.11C438.55,512.23 444.137,524.29 455.31,534.29C466.49,543.703 480.02,551.643 495.9,558.11C511.787,563.997 527.967,568.117 544.44,570.47C560.907,572.823 574.14,574 584.14,574C600.613,574 616.793,573.117 632.68,571.35C648.56,569.583 664.147,567.523 679.44,565.17C695.327,562.817 710.917,560.76 726.21,559C741.503,557.233 756.8,556.35 772.1,556.35L778.27,556.35C781.21,556.35 784.153,556.643 787.1,557.23L802.1,557.23C806.807,558.997 809.453,561.643 810.04,565.17C810.627,568.703 810.92,572.233 810.92,575.76C810.92,579.293 807.097,583.117 799.45,587.23C792.39,591.35 782.977,595.47 771.21,599.59C759.45,603.703 746.217,608.113 731.51,612.82C717.39,616.94 703.563,620.47 690.03,623.41C677.09,626.35 664.737,628.997 652.97,631.35C641.797,633.117 633.857,634 629.15,634C604.443,634 578.263,631.94 550.61,627.82C522.963,623.707 497.67,616.353 474.73,605.76C451.783,594.587 432.663,579.293 417.37,559.88C402.663,540.467 395.31,515.463 395.31,484.87ZM861.22,210.45C858.28,184.563 854.75,162.503 850.63,144.27C846.51,126.03 844.45,111.03 844.45,99.27C845.037,87.503 848.86,78.383 855.92,71.91C863.567,65.443 876.803,61.033 895.63,58.68C896.81,64.56 898.28,75.737 900.04,92.21C901.807,108.677 903.573,127.5 905.34,148.68C907.693,169.267 910.047,191.033 912.4,213.98C915.34,236.333 917.987,256.923 920.34,275.75C922.693,294.57 925.34,309.863 928.28,321.63C931.22,334.57 933.867,340.453 936.22,339.28C946.807,339.28 957.103,337.513 967.11,333.98C977.697,330.453 988.873,328.69 1000.64,328.69C1018.29,328.69 1037.11,330.453 1057.11,333.98C1077.11,336.927 1096.82,341.633 1116.23,348.1C1136.23,354.573 1155.35,363.103 1173.59,373.69C1192.41,383.69 1208.59,395.457 1222.12,408.99C1236.24,422.517 1247.42,438.107 1255.65,455.76C1263.88,473.407 1268,492.817 1268,513.99C1268,541.05 1261.24,562.817 1247.71,579.29C1234.77,595.177 1218,607.237 1197.41,615.47C1176.82,623.703 1154.47,628.997 1130.35,631.35C1105.64,633.703 1082.7,634.88 1061.52,634.88C1032.11,634.88 1007.69,631.35 988.28,624.29C968.867,616.643 952.983,606.35 940.63,593.41C928.277,580.47 918.867,565.47 912.4,548.41C905.927,531.35 901.22,512.82 898.28,492.82C895.34,472.227 893.28,451.047 892.1,429.28C890.927,406.927 889.163,384.573 886.81,362.22C886.217,358.1 884.747,348.983 882.4,334.87C880.047,320.163 877.103,304.28 873.57,287.22C870.63,269.573 867.983,253.397 865.63,238.69C863.277,223.983 861.807,214.57 861.22,210.45ZM945.93,441.64C940.043,467.52 941.513,489.873 950.34,508.7C959.753,527.527 972.99,543.117 990.05,555.47C1007.7,567.23 1027.7,575.463 1050.05,580.17C1072.99,584.877 1095.64,585.76 1118,582.82C1140.35,579.293 1160.35,572.233 1178,561.64C1196.83,550.467 1210.36,535.173 1218.59,515.76C1218.59,499.873 1214.77,485.46 1207.12,472.52C1200.06,459.58 1190.65,448.11 1178.88,438.11C1167.11,428.11 1153.58,419.58 1138.29,412.52C1123.58,404.873 1108.29,398.697 1092.41,393.99C1077.11,389.283 1061.81,385.753 1046.52,383.4C1031.23,380.46 1017.7,378.99 1005.93,378.99C986.517,378.99 971.517,384.577 960.93,395.75C950.93,406.93 945.93,422.227 945.93,441.64ZM1301.54,397.52C1301.54,366.927 1305.95,337.807 1314.77,310.16C1324.18,281.92 1337.42,257.213 1354.48,236.04C1372.13,214.86 1393.3,198.093 1418.01,185.74C1443.3,172.8 1472.42,166.33 1505.37,166.33C1524.78,168.683 1541.55,173.977 1555.67,182.21C1570.38,190.45 1582.14,200.747 1590.96,213.1C1600.37,224.86 1607.14,238.683 1611.26,254.57C1614.79,269.863 1616.55,286.333 1616.55,303.98C1616.55,325.16 1610.37,344.28 1598.02,361.34C1585.67,378.4 1570.08,392.813 1551.25,404.58C1532.43,415.753 1512.14,424.577 1490.37,431.05C1468.6,436.93 1448.31,439.87 1429.48,439.87L1407.42,439.87C1400.36,439.87 1393.89,438.693 1388.01,436.34C1382.13,433.987 1377.42,430.457 1373.89,425.75C1370.36,421.043 1368.6,413.987 1368.6,404.58C1368.6,401.633 1368.89,399.28 1369.48,397.52C1370.65,395.167 1373.3,393.697 1377.42,393.11C1381.54,391.93 1387.72,391.633 1395.95,392.22C1404.19,393.4 1415.37,395.167 1429.48,397.52C1437.72,397.52 1449.49,394.873 1464.78,389.58C1480.66,383.693 1496.54,376.34 1512.43,367.52C1528.9,358.693 1543.02,348.69 1554.78,337.51C1566.55,325.75 1572.43,314.28 1572.43,303.1C1572.43,291.333 1570.37,279.863 1566.25,268.69C1562.72,256.923 1557.14,246.627 1549.49,237.8C1541.84,228.98 1532.72,221.923 1522.13,216.63C1512.13,211.33 1500.66,209.27 1487.72,210.45C1467.13,212.217 1448.31,217.803 1431.25,227.21C1414.78,236.623 1400.66,248.977 1388.89,264.27C1377.12,278.977 1368.01,295.45 1361.54,313.69C1355.07,331.923 1351.83,351.043 1351.83,371.05C1351.83,386.343 1352.12,401.637 1352.71,416.93C1353.3,432.223 1355.36,447.223 1358.89,461.93C1363.01,476.637 1369.19,490.757 1377.42,504.29C1386.25,517.817 1398.6,529.877 1414.48,540.47C1430.95,550.47 1451.54,559 1476.25,566.06C1500.96,572.527 1531.55,576.643 1568.02,578.41L1725.97,567.82C1716.56,580.76 1704.5,591.35 1689.79,599.59C1675.67,607.823 1660.38,614.587 1643.91,619.88C1628.02,624.587 1612.14,628.117 1596.26,630.47C1580.37,632.823 1565.37,634 1551.25,634C1517.13,634 1485.07,628.41 1455.07,617.23C1425.07,606.057 1398.6,590.47 1375.66,570.47C1352.71,549.877 1334.48,525.17 1320.95,496.35C1308.01,466.937 1301.54,433.993 1301.54,397.52ZM1786.85,626.94C1780.97,585.173 1777.15,543.7 1775.38,502.52C1774.21,460.753 1773.62,418.987 1773.62,377.22C1773.62,335.453 1774.21,293.98 1775.38,252.8C1776.56,211.627 1776.86,170.45 1776.27,129.27C1776.27,124.563 1778.03,121.327 1781.56,119.56C1785.09,117.793 1789.2,116.91 1793.91,116.91C1799.21,116.91 1803.92,118.97 1808.03,123.09C1812.15,126.623 1815.68,131.33 1818.62,137.21C1821.56,142.503 1823.62,148.09 1824.8,153.97C1826.56,159.27 1827.44,163.683 1827.44,167.21C1830.97,251.33 1833.33,321.627 1834.5,378.1C1835.68,433.987 1835.68,479.283 1834.5,513.99C1833.33,548.11 1831.27,573.407 1828.33,589.88C1825.98,606.353 1822.74,617.53 1818.62,623.41C1814.5,629.297 1809.5,631.65 1803.62,630.47C1798.33,629.297 1792.74,628.12 1786.85,626.94ZM1895.39,626.94C1889.51,585.173 1885.69,543.7 1883.92,502.52C1882.74,460.753 1882.15,418.987 1882.15,377.22C1882.15,335.453 1882.74,293.98 1883.92,252.8C1885.09,211.627 1885.39,170.45 1884.8,129.27C1884.8,124.563 1886.57,121.327 1890.1,119.56C1893.63,117.793 1897.74,116.91 1902.45,116.91C1907.74,116.91 1912.45,118.97 1916.57,123.09C1920.68,126.623 1924.21,131.33 1927.16,137.21C1930.1,142.503 1932.16,148.09 1933.33,153.97C1935.1,159.27 1935.98,163.683 1935.98,167.21C1939.51,251.33 1941.86,321.627 1943.04,378.1C1944.21,433.987 1944.21,479.283 1943.04,513.99C1941.86,548.11 1939.8,573.407 1936.86,589.88C1934.51,606.353 1931.27,617.53 1927.16,623.41C1923.04,629.297 1918.04,631.65 1912.16,630.47C1906.86,629.297 1901.27,628.12 1895.39,626.94ZM2023.34,328.69L2023.34,295.16C2023.93,288.1 2024.22,281.333 2024.22,274.86L2024.22,261.63C2021.87,243.39 2027.16,234.27 2040.1,234.27C2045.99,234.27 2050.99,235.743 2055.1,238.69C2059.22,241.63 2063.05,246.04 2066.58,251.92C2064.81,282.513 2065.99,312.22 2070.1,341.04C2074.81,369.28 2079.81,397.517 2085.11,425.75C2090.99,453.403 2096.28,481.347 2100.99,509.58C2106.28,537.82 2108.93,567.233 2108.93,597.82C2108.93,606.06 2106.28,614.297 2100.99,622.53C2096.28,630.763 2088.93,634.88 2078.93,634.88C2071.28,634.88 2064.52,628.41 2058.63,615.47C2053.34,601.937 2048.63,585.17 2044.52,565.17C2040.4,544.583 2036.87,521.937 2033.93,497.23C2030.98,472.523 2028.63,448.993 2026.87,426.64C2025.69,403.693 2024.81,383.397 2024.22,365.75C2023.63,347.517 2023.34,335.163 2023.34,328.69ZM1978.34,107.21C1978.34,100.15 1980.4,95.737 1984.51,93.97C1988.63,91.617 1993.93,90.44 2000.4,90.44C2004.51,89.853 2009.81,92.5 2016.28,98.38C2023.34,103.68 2028.93,109.857 2033.04,116.91C2037.75,123.97 2040.4,130.443 2040.99,136.33C2041.58,143.39 2037.16,147.507 2027.75,148.68L2023.34,148.68C2014.51,148.68 2007.16,148.093 2001.28,146.92C1995.39,145.74 1990.69,143.973 1987.16,141.62C1984.22,138.68 1981.87,134.563 1980.1,129.27C1978.93,123.977 1978.34,116.623 1978.34,107.21ZM2142.46,453.99C2142.46,421.637 2149.52,393.4 2163.64,369.28C2177.76,345.16 2196.29,324.863 2219.23,308.39C2242.17,291.923 2267.76,279.867 2296,272.22C2324.83,263.98 2353.65,259.86 2382.47,259.86C2397.77,259.86 2411.89,262.803 2424.83,268.69C2438.36,273.983 2451,281.63 2462.77,291.63C2475.12,301.043 2486.01,312.22 2495.42,325.16C2504.83,337.513 2512.78,350.457 2519.25,363.99C2526.3,377.517 2531.6,391.34 2535.13,405.46C2538.66,418.987 2540.42,432.223 2540.42,445.17C2540.42,475.17 2534.54,501.933 2522.78,525.46C2511.01,548.993 2495.13,568.997 2475.13,585.47C2455.12,601.35 2432.47,613.703 2407.18,622.53C2381.89,630.763 2356,634.88 2329.53,634.88C2302.47,634.88 2277.47,630.763 2254.53,622.53C2232.17,613.703 2212.46,601.643 2195.41,586.35C2178.94,571.057 2165.99,552.233 2156.58,529.88C2147.17,506.933 2142.46,481.637 2142.46,453.99ZM2185.7,446.93C2185.7,465.17 2188.94,482.82 2195.41,499.88C2202.46,516.347 2211.87,530.757 2223.64,543.11C2235.99,555.463 2250.41,565.463 2266.88,573.11C2283.35,580.17 2301,583.7 2319.82,583.7C2329.82,584.88 2341.88,583.41 2356,579.29C2370.71,574.583 2385.12,568.113 2399.24,559.88C2413.95,551.053 2427.77,540.757 2440.71,528.99C2454.24,516.637 2465.42,503.403 2474.24,489.29C2483.07,474.583 2488.36,459.58 2490.13,444.28C2492.48,428.4 2489.84,412.813 2482.19,397.52C2475.13,381.633 2461.89,366.63 2442.48,352.51C2423.07,337.803 2396.3,324.273 2362.18,311.92C2342.77,311.92 2322.47,314.863 2301.29,320.75C2280.7,326.043 2261.88,334.28 2244.82,345.46C2227.76,356.633 2213.64,370.75 2202.46,387.81C2191.29,404.87 2185.7,424.577 2185.7,446.93Z" style="fill:rgb(154,186,255);fill-rule:nonzero;"/>
            </g>
        </g>
        <g transform="matrix(0.195707,0,0,0.195707,444.613,2.18798)">
            <text x="402.525px" y="64.732px" style="font-family:'NexaLight', 'Nexa Light';font-size:50px;fill:rgb(239,246,255);">P<tspan x="434.175px 465.125px 490.375px " y="64.732px 64.732px 64.732px ">ack</tspan>age L<tspan x="641.775px 671.675px 702.725px " y="64.732px 64.732px 64.732px ">abe</tspan>l</text>
        </g>
    </g>
    <g id="location" transform="matrix(5.8958,0,0,5.8958,0,0)">
        <g>
            <g id="dep">
            </g>
        </g>
    </g>
    <defs>
        <radialGradient id="_Radial2" cx="0" cy="0" r="1" gradientUnits="userSpaceOnUse" gradientTransform="matrix(50,0,0,50,1143.66,373.4)"><stop offset="0" style="stop-color:white;stop-opacity:1"/><stop offset="0.1" style="stop-color:white;stop-opacity:1"/><stop offset="0.2" style="stop-color:rgb(23,53,179);stop-opacity:1"/><stop offset="1" style="stop-color:rgb(23,53,179);stop-opacity:0"/></radialGradient>
        <radialGradient id="_Radial3" cx="0" cy="0" r="1" gradientUnits="userSpaceOnUse" gradientTransform="matrix(50,0,0,50,1295.88,95.94)"><stop offset="0" style="stop-color:white;stop-opacity:1"/><stop offset="0.1" style="stop-color:white;stop-opacity:1"/><stop offset="0.2" style="stop-color:rgb(23,53,179);stop-opacity:1"/><stop offset="1" style="stop-color:rgb(23,53,179);stop-opacity:0"/></radialGradient>
        <radialGradient id="_Radial4" cx="0" cy="0" r="1" gradientUnits="userSpaceOnUse" gradientTransform="matrix(50,0,0,50,1291.73,385.42)"><stop offset="0" style="stop-color:white;stop-opacity:1"/><stop offset="0.1" style="stop-color:white;stop-opacity:1"/><stop offset="0.2" style="stop-color:rgb(23,53,179);stop-opacity:1"/><stop offset="1" style="stop-color:rgb(23,53,179);stop-opacity:0"/></radialGradient>
    </defs>
</svg>
